<?xml version="1.0" encoding="UTF-8"?>
<svg id="b" data-name="Laag 2" xmlns="http://www.w3.org/2000/svg" width="91.314" height="91.314" viewBox="0 0 91.314 91.314">
  <g id="c" data-name="Laag 1">
    <g id="d" data-name="Group 615" transform="translate(-1118.344 -524.688)">
      <g id="e" data-name="Icon feather-calendar" transform="translate(1117.844 516.431)">
        <path d="M78.058,91.314H13.257c-7.31,0-13.257-5.947-13.257-13.257V13.255C.002,5.946,5.949,0,13.257,0H78.058c7.31,0,13.257,5.947,13.257,13.257V78.058c0,7.31-5.947,13.257-13.257,13.257ZM13.257,8c-2.898,0-5.256,2.358-5.257,5.256V78.056c0,2.899,2.358,5.259,5.257,5.259H78.058c2.898,0,5.257-2.358,5.257-5.257V13.257c0-2.899-2.358-5.257-5.257-5.257H13.257Z" fill="#006"/>
      </g>
      <g id="f" data-name="Ellipse 2" transform="translate(1141 547)">
        <circle cx="45.656" cy="45.312" r="23" fill="none"/>
        <path d="M45.656,68.312c-12.682,0-23-10.318-23-23s10.318-23,23-23,23,10.318,23,23-10.317,23-23,23Zm0-38c-8.271,0-15,6.729-15,15s6.729,15,15,15,15-6.729,15-15-6.729-15-15-15Z" fill="#ff6200"/>
      </g>
    </g>
  </g>
</svg>